<svg width="180" height="40" viewBox="0 0 180 40" fill="none" xmlns="http://www.w3.org/2000/svg">
  <rect width="180" height="40" rx="8" fill="#0070f3"/>
  <path d="M20 8H28.292C32.6 8 35.82 10.9 35.82 15.4C35.82 19.9 32.6 22.8 28.292 22.8H20V8ZM25.4 18.4H27.32C29.184 18.4 30.42 17.44 30.42 15.4C30.42 13.36 29.184 12.4 27.32 12.4H25.4V18.4Z" fill="white"/>
  <path d="M45.5 8V22.8H40.1V8H45.5Z" fill="white"/>
  <path d="M57.9641 13.16C57.9641 14.4 57.0441 15.1 55.7641 15.1H52.7641V11.2H55.7641C57.0441 11.2 57.9641 11.92 57.9641 13.16ZM58.6041 22.8L55.5641 17.9H52.7641V22.8H47.3641V8H56.4041C60.0841 8 63.3641 9.9 63.3641 13.16C63.3641 15.62 61.9241 17.26 59.7641 18.06L63.6441 22.8H58.6041Z" fill="white"/>
  <path d="M74.8906 18.58H79.5306C79.0906 21.08 76.9106 23.2 73.9906 23.2C70.3106 23.2 67.7906 20.32 67.7906 15.4C67.7906 10.48 70.3106 7.6 73.9906 7.6C76.9106 7.6 79.0906 9.72 79.5306 12.22H74.8906C74.6306 11.38 74.2906 10.98 73.9906 10.98C73.3906 10.98 72.8506 11.94 72.8506 15.4C72.8506 18.86 73.3906 19.82 73.9906 19.82C74.2906 19.82 74.6306 19.42 74.8906 18.58Z" fill="white"/>
  <path d="M97.0125 15.4C97.0125 20.32 94.4925 23.2 90.8125 23.2C87.1325 23.2 84.6125 20.32 84.6125 15.4C84.6125 10.48 87.1325 7.6 90.8125 7.6C94.4925 7.6 97.0125 10.48 97.0125 15.4ZM89.6725 15.4C89.6725 18.86 90.2125 19.82 90.8125 19.82C91.4125 19.82 91.9525 18.86 91.9525 15.4C91.9525 11.94 91.4125 10.98 90.8125 10.98C90.2125 10.98 89.6725 11.94 89.6725 15.4Z" fill="white"/>
  <path d="M106.347 8V22.8H100.947V8H106.347Z" fill="white"/>
  <path d="M117.212 19.4H121.972V22.8H111.812V8H121.732V11.4H117.212V13.4H121.032V16.8H117.212V19.4Z" fill="white"/>
  <path d="M136.591 22.8L136.431 20.8C136.151 21.48 135.151 23.2 132.851 23.2C129.171 23.2 126.651 20.32 126.651 15.4C126.651 10.48 129.171 7.6 132.851 7.6C135.151 7.6 136.151 9.32 136.431 10L136.591 8H141.991V22.8H136.591ZM135.531 15.4C135.531 11.94 134.991 10.98 134.391 10.98C133.791 10.98 133.251 11.94 133.251 15.4C133.251 18.86 133.791 19.82 134.391 19.82C134.991 19.82 135.531 18.86 135.531 15.4Z" fill="white"/>
  <path d="M155.344 22.8H149.944L147.824 17.82L147.524 22.8H142.124V8H147.524L147.824 12.98L149.944 8H155.344L151.804 15.4L155.344 22.8Z" fill="white"/>
</svg> 